<?xml version="1.0" encoding="utf-8" standalone="no"?>
<!DOCTYPE svg PUBLIC "-//W3C//DTD SVG 1.1//EN"
  "http://www.w3.org/Graphics/SVG/1.1/DTD/svg11.dtd">
<svg height="504pt" version="1.1" viewBox="0 0 648 504" width="648pt" xmlns="http://www.w3.org/2000/svg" xmlns:xlink="http://www.w3.org/1999/xlink">
 <metadata>
  <rdf:RDF xmlns:cc="http://creativecommons.org/ns#" xmlns:dc="http://purl.org/dc/elements/1.1/" xmlns:rdf="http://www.w3.org/1999/02/22-rdf-syntax-ns#">
   <cc:Work>
    <dc:type rdf:resource="http://purl.org/dc/dcmitype/StillImage"/>
    <dc:date>2021-09-23T12:17:26.743328</dc:date>
    <dc:format>image/svg+xml</dc:format>
    <dc:creator>
     <cc:Agent>
      <dc:title>Matplotlib v3.4.3, https://matplotlib.org/</dc:title>
     </cc:Agent>
    </dc:creator>
   </cc:Work>
  </rdf:RDF>
 </metadata>
 <defs>
  <style type="text/css">*{stroke-linecap:butt;stroke-linejoin:round;}</style>
 </defs>
 <g id="figure_1">
  <g id="patch_1">
   <path d="M 0 504 
L 648 504 
L 648 0 
L 0 0 
z
" style="fill:#ffffff;"/>
  </g>
  <g id="axes_1">
   <g id="patch_2">
    <path d="M 81 448.56 
L 583.2 448.56 
L 583.2 60.48 
L 81 60.48 
z
" style="fill:#ffffff;"/>
   </g>
   <g id="matplotlib.axis_1">
    <g id="xtick_1">
     <g id="line2d_1">
      <defs>
       <path d="M 0 0 
L 0 3.5 
" id="m20cd548839" style="stroke:#000000;stroke-width:0.8;"/>
      </defs>
      <g>
       <use style="stroke:#000000;stroke-width:0.8;" x="160.895455" xlink:href="#m20cd548839" y="448.56"/>
      </g>
     </g>
     <g id="text_1">
      <!-- $\mathdefault{10^{1}}$ -->
      <g transform="translate(147.895455 468.76)scale(0.2 -0.2)">
       <defs>
        <path d="M 2272 -19 
Q 1939 0 1523 0 
Q 1107 0 774 -19 
L 774 83 
L 1107 141 
Q 1331 186 1331 390 
L 1331 3552 
L 570 3059 
L 480 3181 
Q 922 3469 1542 4064 
L 1754 4064 
L 1754 390 
Q 1754 173 1978 134 
L 2272 83 
L 2272 -19 
z
" id="STKaiti-31" transform="scale(0.015625)"/>
        <path d="M 1517 4064 
Q 2048 4064 2435 3465 
Q 2822 2867 2822 1978 
Q 2822 1094 2435 496 
Q 2048 -102 1517 -102 
Q 1005 -102 608 490 
Q 211 1082 211 1978 
Q 211 2867 598 3465 
Q 986 4064 1517 4064 
z
M 1517 45 
Q 1990 45 2172 515 
Q 2355 986 2355 1978 
Q 2355 2970 2172 3443 
Q 1990 3917 1517 3917 
Q 1043 3917 860 3443 
Q 678 2970 678 1978 
Q 678 45 1517 45 
z
" id="STKaiti-30" transform="scale(0.015625)"/>
       </defs>
       <use transform="translate(0 0.665625)" xlink:href="#STKaiti-31"/>
       <use transform="translate(46.899994 0.665625)" xlink:href="#STKaiti-30"/>
       <use transform="translate(94.472097 27.55)scale(0.7)" xlink:href="#STKaiti-31"/>
      </g>
     </g>
    </g>
    <g id="xtick_2">
     <g id="line2d_2">
      <g>
       <use style="stroke:#000000;stroke-width:0.8;" x="275.031818" xlink:href="#m20cd548839" y="448.56"/>
      </g>
     </g>
     <g id="text_2">
      <!-- $\mathdefault{10^{3}}$ -->
      <g transform="translate(262.031818 468.76)scale(0.2 -0.2)">
       <defs>
        <path d="M 602 3130 
L 486 3194 
Q 672 3635 934 3849 
Q 1197 4064 1594 4064 
Q 1952 4064 2195 3859 
Q 2438 3654 2438 3405 
Q 2438 3155 2268 2931 
Q 2099 2707 1741 2438 
Q 2208 2470 2489 2163 
Q 2771 1856 2771 1376 
Q 2771 755 2329 326 
Q 1888 -102 1203 -102 
Q 762 -102 531 3 
Q 301 109 301 250 
Q 301 314 361 368 
Q 422 422 493 422 
Q 602 422 742 307 
Q 1101 38 1350 38 
Q 1741 38 2038 377 
Q 2336 717 2336 1203 
Q 2336 1613 2134 1878 
Q 1933 2144 1626 2144 
Q 1389 2144 1139 1926 
L 1069 2048 
Q 1197 2163 1350 2278 
Q 2054 2797 2054 3155 
Q 2054 3418 1878 3578 
Q 1702 3738 1440 3738 
Q 1184 3738 957 3581 
Q 730 3424 602 3130 
z
" id="STKaiti-33" transform="scale(0.015625)"/>
       </defs>
       <use transform="translate(0 0.665625)" xlink:href="#STKaiti-31"/>
       <use transform="translate(46.899994 0.665625)" xlink:href="#STKaiti-30"/>
       <use transform="translate(94.472097 27.55)scale(0.7)" xlink:href="#STKaiti-33"/>
      </g>
     </g>
    </g>
    <g id="xtick_3">
     <g id="line2d_3">
      <g>
       <use style="stroke:#000000;stroke-width:0.8;" x="389.168182" xlink:href="#m20cd548839" y="448.56"/>
      </g>
     </g>
     <g id="text_3">
      <!-- $\mathdefault{10^{5}}$ -->
      <g transform="translate(376.168182 468.76)scale(0.2 -0.2)">
       <defs>
        <path d="M 2432 3622 
L 1536 3622 
Q 1037 3622 986 3603 
L 902 2432 
Q 1184 2566 1478 2566 
Q 2003 2566 2368 2208 
Q 2733 1850 2733 1274 
Q 2733 634 2281 266 
Q 1830 -102 1254 -102 
Q 934 -102 665 10 
Q 397 122 397 256 
Q 397 320 454 387 
Q 512 454 614 454 
Q 685 454 730 422 
Q 1178 83 1453 83 
Q 1811 83 2086 393 
Q 2362 704 2362 1126 
Q 2362 1574 2083 1872 
Q 1805 2170 1395 2170 
Q 1216 2170 1059 2112 
Q 902 2054 832 1952 
L 723 1952 
L 845 4000 
L 1542 4000 
Q 2022 4000 2176 4013 
Q 2330 4026 2394 4109 
L 2490 4109 
L 2432 3622 
z
" id="STKaiti-35" transform="scale(0.015625)"/>
       </defs>
       <use transform="translate(0 0.173438)" xlink:href="#STKaiti-31"/>
       <use transform="translate(46.899994 0.173438)" xlink:href="#STKaiti-30"/>
       <use transform="translate(94.472097 27.057813)scale(0.7)" xlink:href="#STKaiti-35"/>
      </g>
     </g>
    </g>
    <g id="xtick_4">
     <g id="line2d_4">
      <g>
       <use style="stroke:#000000;stroke-width:0.8;" x="503.304545" xlink:href="#m20cd548839" y="448.56"/>
      </g>
     </g>
     <g id="text_4">
      <!-- $\mathdefault{10^{7}}$ -->
      <g transform="translate(490.304545 468.76)scale(0.2 -0.2)">
       <defs>
        <path d="M 294 4000 
L 2758 4000 
L 2758 3891 
Q 2541 3507 1981 1929 
Q 1421 352 1363 0 
L 1152 0 
Q 1459 1325 2387 3610 
L 659 3610 
Q 499 3610 486 3526 
L 435 3258 
L 294 3258 
L 294 4000 
z
" id="STKaiti-37" transform="scale(0.015625)"/>
       </defs>
       <use transform="translate(0 0.365625)" xlink:href="#STKaiti-31"/>
       <use transform="translate(46.899994 0.365625)" xlink:href="#STKaiti-30"/>
       <use transform="translate(94.472097 27.25)scale(0.7)" xlink:href="#STKaiti-37"/>
      </g>
     </g>
    </g>
    <g id="text_5">
     <!-- 矩阵大小n:(1xn)@(nx1) -->
     <g transform="translate(235.217188 492.219375)scale(0.2 -0.2)">
      <defs>
       <path d="M 2394 1952 
Q 2650 2010 2835 2074 
Q 3021 2138 3149 2138 
Q 3277 2138 3376 2067 
Q 3475 1997 3475 1955 
Q 3475 1914 3187 1869 
Q 2714 1798 2362 1722 
Q 2253 992 1981 531 
Q 1709 70 1337 -170 
Q 966 -410 838 -410 
Q 787 -410 787 -371 
Q 787 -333 864 -269 
Q 1446 211 1692 649 
Q 1939 1088 2029 1645 
Q 1312 1440 1171 1392 
Q 1030 1344 934 1344 
Q 838 1344 665 1462 
Q 493 1581 493 1629 
Q 493 1677 576 1677 
L 653 1677 
Q 1075 1677 2061 1882 
Q 2080 2035 2080 2163 
Q 2080 2483 1933 2694 
Q 1811 2707 1715 2733 
Q 1466 2438 1274 2300 
Q 1082 2163 1011 2163 
Q 992 2163 992 2182 
Q 992 2214 1082 2323 
Q 1523 2848 1760 3408 
Q 1997 3968 1958 4115 
Q 1946 4173 1946 4211 
Q 1946 4294 2022 4294 
Q 2099 4294 2297 4188 
Q 2496 4083 2496 3981 
Q 2496 3923 2400 3801 
Q 2304 3680 2169 3421 
Q 2035 3162 1856 2918 
Q 1958 2893 2345 3053 
Q 2733 3213 2873 3213 
Q 3014 3213 3116 3168 
Q 3219 3123 3219 3068 
Q 3219 3014 2998 2937 
Q 2778 2861 2099 2714 
Q 2310 2643 2409 2585 
Q 2509 2528 2509 2454 
Q 2509 2381 2470 2288 
Q 2432 2195 2394 1952 
z
M 3910 166 
L 4947 333 
Q 5421 403 5494 412 
Q 5568 422 5638 422 
Q 5875 422 6000 310 
Q 6125 198 6125 122 
Q 6125 19 5926 19 
L 5229 38 
Q 4934 38 4540 3 
Q 4147 -32 4019 -70 
Q 3891 -109 3772 -201 
Q 3654 -294 3584 -294 
Q 3514 -294 3443 -195 
Q 3373 -96 3373 -25 
Q 3373 45 3459 137 
Q 3546 230 3584 470 
Q 3622 710 3644 1267 
Q 3667 1824 3667 2441 
Q 3667 3059 3638 3264 
Q 3610 3469 3552 3561 
Q 3494 3654 3494 3705 
Q 3494 3757 3552 3757 
Q 3674 3757 3949 3565 
Q 4211 3590 5030 3853 
Q 5267 3930 5376 3930 
Q 5485 3930 5581 3885 
Q 5677 3840 5677 3782 
Q 5677 3725 5597 3677 
Q 5517 3629 5213 3549 
Q 4909 3469 4582 3424 
Q 4256 3379 3987 3392 
Q 3987 3053 3974 2406 
Q 4262 2432 4544 2505 
Q 4826 2579 4928 2636 
Q 5030 2694 5142 2694 
Q 5254 2694 5481 2585 
Q 5709 2477 5709 2400 
Q 5709 2355 5600 2256 
Q 5491 2157 5401 2009 
Q 5312 1862 5312 1779 
Q 5312 1696 5344 1664 
Q 5446 1562 5446 1498 
Q 5446 1434 5274 1421 
Q 4813 1376 4579 1334 
Q 4346 1293 4198 1293 
Q 4051 1293 3949 1306 
L 3910 166 
z
M 3955 1466 
Q 4198 1466 4496 1523 
Q 4794 1581 4864 1632 
Q 4934 1683 4976 1872 
Q 5018 2061 5018 2221 
Q 5018 2381 4934 2381 
Q 4851 2381 4742 2362 
Q 4237 2253 3974 2259 
Q 3955 1869 3955 1466 
z
M 3130 512 
Q 3130 403 3088 291 
Q 3046 179 2988 179 
Q 2931 179 2883 220 
Q 2835 262 2668 518 
Q 2502 774 2428 944 
Q 2355 1114 2355 1155 
Q 2355 1197 2387 1197 
Q 2490 1197 2810 976 
Q 3130 755 3130 512 
z
" id="STKaiti-77e9" transform="scale(0.015625)"/>
       <path d="M 4154 1229 
Q 4915 1325 5104 1360 
Q 5293 1395 5517 1395 
Q 5741 1395 5929 1299 
Q 6118 1203 6118 1101 
Q 6118 966 5837 966 
Q 5754 966 5581 988 
Q 5408 1011 5021 1011 
Q 4634 1011 4154 966 
L 4154 352 
Q 4154 -166 4083 -608 
Q 4013 -1050 3917 -1050 
Q 3859 -1050 3824 -851 
Q 3789 -653 3789 -41 
Q 3789 570 3795 934 
Q 3046 851 2758 774 
Q 2470 698 2291 698 
Q 2112 698 1997 794 
Q 1882 890 1882 934 
Q 1882 979 1920 995 
Q 1958 1011 2106 1011 
Q 2394 1011 3802 1184 
L 3827 1971 
Q 3520 1933 3289 1869 
Q 3059 1805 2976 1734 
Q 2816 1594 2745 1594 
Q 2675 1594 2608 1709 
Q 2541 1824 2541 1882 
Q 2541 1997 2765 2131 
Q 2931 2240 3334 3251 
Q 3085 3219 2969 3219 
Q 2854 3219 2736 3270 
Q 2618 3322 2618 3373 
Q 2618 3443 2784 3443 
Q 2893 3443 3456 3552 
Q 3706 4134 3706 4282 
Q 3706 4314 3686 4381 
Q 3667 4448 3667 4528 
Q 3667 4608 3753 4608 
Q 3840 4608 4038 4525 
Q 4237 4442 4237 4346 
Q 4237 4250 4134 4109 
Q 4032 3968 3866 3642 
Q 4352 3738 4528 3792 
Q 4704 3846 4864 3846 
Q 5024 3846 5126 3785 
Q 5229 3725 5229 3661 
Q 5229 3597 5110 3542 
Q 4992 3488 3699 3296 
Q 3379 2701 3072 2048 
Q 3405 2106 3827 2189 
Q 3834 2592 3782 2765 
Q 3763 2842 3763 2893 
Q 3763 2989 3843 2989 
Q 3923 2989 4080 2915 
Q 4237 2842 4237 2739 
Q 4237 2637 4214 2544 
Q 4192 2451 4179 2259 
Q 4774 2381 4918 2381 
Q 5062 2381 5171 2317 
Q 5280 2253 5280 2185 
Q 5280 2118 5216 2083 
Q 5152 2048 5050 2048 
L 4864 2054 
Q 4646 2054 4173 2010 
L 4154 1229 
z
M 1203 3923 
Q 1395 3917 1574 3965 
Q 1754 4013 1843 4096 
Q 1984 4237 2067 4237 
Q 2150 4237 2348 4157 
Q 2547 4077 2547 4006 
Q 2547 3936 2400 3757 
Q 2048 3334 2048 3066 
Q 2048 2925 2125 2778 
Q 2400 2266 2400 2054 
Q 2400 1830 2285 1830 
Q 2221 1830 2089 1936 
Q 1958 2042 1574 2278 
Q 1491 2330 1491 2365 
Q 1491 2400 1558 2400 
Q 1626 2400 1699 2387 
Q 1773 2374 1824 2374 
Q 1978 2374 1978 2489 
Q 1978 2605 1869 2842 
Q 1818 2957 1818 3107 
Q 1818 3258 1933 3642 
Q 1958 3725 1958 3773 
Q 1958 3821 1913 3821 
Q 1869 3821 1747 3766 
Q 1626 3712 1376 3725 
Q 1395 3085 1395 2573 
L 1395 1088 
Q 1402 192 1334 -80 
Q 1267 -352 1174 -352 
Q 1082 -352 998 -166 
Q 915 19 915 166 
Q 915 314 972 486 
Q 1030 659 1068 1113 
Q 1107 1568 1107 2246 
Q 1107 2925 1068 3238 
Q 1030 3552 922 3744 
Q 870 3834 870 3901 
Q 870 3968 966 3968 
Q 1062 3968 1203 3923 
z
" id="STKaiti-9635" transform="scale(0.015625)"/>
       <path d="M 3258 1939 
Q 3578 1395 3990 947 
Q 4403 499 4867 246 
Q 5331 -6 6170 -218 
Q 6355 -262 6355 -326 
Q 6355 -358 6291 -377 
Q 6227 -397 5817 -429 
Q 5408 -461 5110 -461 
Q 4813 -461 4691 -374 
Q 4570 -288 4112 265 
Q 3654 819 3206 1645 
Q 3027 851 2630 412 
Q 2234 -26 1747 -198 
Q 1261 -371 1088 -371 
Q 1030 -371 1030 -339 
Q 1030 -307 1171 -243 
Q 2086 160 2496 774 
Q 2906 1389 2950 2253 
Q 2714 2214 2362 2124 
Q 2010 2035 1875 2035 
Q 1741 2035 1577 2112 
Q 1414 2189 1414 2230 
Q 1414 2272 1613 2298 
Q 2042 2349 2963 2515 
Q 2976 2867 2976 3219 
Q 2976 3571 2941 3824 
Q 2906 4077 2810 4214 
Q 2714 4352 2714 4425 
Q 2714 4499 2819 4499 
Q 2925 4499 3206 4403 
Q 3488 4307 3488 4166 
Q 3488 4115 3462 4044 
Q 3437 3974 3421 3865 
Q 3405 3757 3379 3392 
L 3322 2586 
Q 4013 2720 4218 2790 
Q 4557 2912 4781 2912 
Q 5005 2912 5171 2797 
Q 5338 2682 5338 2605 
Q 5338 2490 4986 2483 
Q 4282 2477 3302 2323 
Q 3283 2086 3258 1939 
z
" id="STKaiti-5927" transform="scale(0.015625)"/>
       <path d="M 3603 3846 
Q 3603 3802 3578 3763 
Q 3501 3629 3465 3360 
Q 3430 3091 3430 2528 
Q 3430 1965 3443 1370 
L 3469 358 
Q 3469 -115 3318 -416 
Q 3168 -717 3065 -717 
Q 2963 -717 2861 -550 
Q 2675 -237 2266 166 
Q 2195 237 2195 265 
Q 2195 294 2227 294 
Q 2259 294 2323 269 
Q 2720 122 2841 122 
Q 2963 122 2998 195 
Q 3034 269 3066 838 
Q 3098 1408 3098 2253 
Q 3098 3098 3050 3498 
Q 3002 3898 2854 4090 
Q 2810 4160 2810 4224 
Q 2810 4288 2931 4288 
Q 3053 4288 3328 4141 
Q 3603 3994 3603 3846 
z
M 4422 2528 
Q 4506 2528 4784 2390 
Q 5062 2253 5264 2083 
Q 5466 1914 5558 1741 
Q 5651 1568 5651 1344 
Q 5651 992 5481 992 
Q 5312 992 5094 1376 
Q 4781 1933 4429 2374 
Q 4371 2445 4371 2486 
Q 4371 2528 4422 2528 
z
M 1619 2432 
Q 1664 2432 1734 2333 
Q 1805 2234 1805 2042 
Q 1805 1850 1654 1462 
Q 1504 1075 1344 870 
Q 1184 666 1101 666 
Q 1018 666 976 762 
Q 934 858 934 995 
Q 934 1133 982 1238 
Q 1030 1344 1136 1481 
Q 1242 1619 1366 1872 
Q 1491 2125 1532 2278 
Q 1574 2432 1619 2432 
z
" id="STKaiti-5c0f" transform="scale(0.015625)"/>
       <path d="M 3200 -19 
Q 2867 0 2534 0 
Q 2202 0 1869 -19 
L 1869 83 
L 2221 134 
Q 2362 154 2362 384 
L 2362 1645 
Q 2362 1926 2202 2092 
Q 2042 2259 1766 2259 
Q 1357 2259 966 1869 
L 966 314 
Q 966 211 1120 173 
L 1498 83 
L 1498 -19 
Q 1261 0 806 0 
Q 352 0 115 -19 
L 115 83 
L 454 147 
Q 582 166 582 339 
L 582 1606 
Q 582 1805 502 1875 
Q 422 1946 218 1978 
L 218 2093 
Q 627 2189 864 2669 
L 966 2669 
L 966 2093 
Q 1210 2304 1504 2429 
Q 1798 2554 2022 2554 
Q 2758 2554 2758 1677 
L 2758 403 
Q 2758 282 2790 218 
Q 2822 154 2918 134 
L 3200 83 
L 3200 -19 
z
" id="STKaiti-6e" transform="scale(0.015625)"/>
       <path d="M 352 2208 
Q 352 2349 454 2451 
Q 557 2554 698 2554 
Q 838 2554 940 2451 
Q 1043 2349 1043 2208 
Q 1043 2067 940 1964 
Q 838 1862 698 1862 
Q 557 1862 454 1964 
Q 352 2067 352 2208 
z
M 352 243 
Q 352 384 454 486 
Q 557 589 698 589 
Q 838 589 940 486 
Q 1043 384 1043 243 
Q 1043 102 940 0 
Q 838 -102 698 -102 
Q 557 -102 454 0 
Q 352 102 352 243 
z
" id="STKaiti-3a" transform="scale(0.015625)"/>
       <path d="M 1901 4198 
L 1984 4032 
Q 1350 3450 1068 2797 
Q 787 2144 787 1286 
Q 787 582 1091 -112 
Q 1395 -806 1965 -1312 
L 1888 -1459 
Q 1242 -992 867 -208 
Q 493 576 493 1389 
Q 493 2208 864 2985 
Q 1235 3763 1901 4198 
z
" id="STKaiti-28" transform="scale(0.015625)"/>
       <path d="M 2848 -26 
Q 2605 0 2240 0 
Q 1856 0 1626 -26 
L 1626 77 
L 1843 134 
Q 2003 179 2003 256 
Q 2003 314 1907 435 
L 1395 1082 
L 922 435 
Q 851 346 851 282 
Q 851 166 1101 115 
L 1293 77 
L 1293 -26 
Q 1037 0 826 0 
Q 422 0 109 -26 
L 109 77 
L 288 122 
Q 461 154 579 256 
Q 698 358 838 550 
L 1306 1184 
L 672 1952 
Q 390 2291 294 2310 
L 90 2355 
L 90 2458 
Q 224 2438 717 2438 
Q 1190 2438 1350 2458 
L 1350 2342 
L 1120 2310 
Q 1018 2291 1018 2227 
Q 1018 2138 1165 1952 
L 1536 1498 
L 1894 1965 
Q 1978 2080 1978 2163 
Q 1978 2291 1798 2323 
L 1606 2355 
L 1606 2458 
Q 1792 2432 2054 2435 
Q 2317 2438 2406 2438 
Q 2669 2438 2752 2458 
L 2752 2355 
L 2541 2317 
Q 2394 2285 2278 2205 
Q 2163 2125 2022 1933 
L 1619 1389 
L 2387 397 
Q 2566 179 2669 141 
L 2848 77 
L 2848 -26 
z
" id="STKaiti-78" transform="scale(0.015625)"/>
       <path d="M -38 4198 
Q 627 3763 998 2985 
Q 1370 2208 1370 1389 
Q 1370 576 995 -208 
Q 621 -992 -26 -1459 
L -102 -1312 
Q 467 -806 771 -112 
Q 1075 582 1075 1286 
Q 1075 2144 793 2797 
Q 512 3450 -122 4032 
L -38 4198 
z
" id="STKaiti-29" transform="scale(0.015625)"/>
       <path d="M 4762 2758 
L 4390 1510 
Q 4186 787 4147 614 
Q 4109 442 4109 346 
Q 4109 83 4333 83 
Q 4608 83 4925 345 
Q 5242 608 5453 1094 
Q 5664 1581 5664 2086 
Q 5664 2944 5094 3504 
Q 4525 4064 3635 4064 
Q 2912 4064 2288 3664 
Q 1664 3264 1309 2547 
Q 954 1830 954 1075 
Q 954 378 1254 -201 
Q 1555 -781 2131 -1104 
Q 2707 -1427 3405 -1427 
Q 4230 -1427 4889 -982 
Q 5549 -538 5914 301 
L 6093 301 
Q 5792 -589 5046 -1104 
Q 4301 -1619 3386 -1619 
Q 2624 -1619 1981 -1248 
Q 1338 -877 998 -230 
Q 659 416 659 1158 
Q 659 1946 1040 2672 
Q 1421 3398 2125 3811 
Q 2829 4224 3616 4224 
Q 4288 4224 4800 3945 
Q 5312 3667 5581 3148 
Q 5850 2630 5850 2054 
Q 5850 1498 5597 944 
Q 5344 390 4963 124 
Q 4582 -141 4122 -141 
Q 3898 -141 3773 -29 
Q 3648 83 3648 288 
Q 3648 442 3699 749 
Q 2976 -147 2477 -147 
Q 2246 -147 2076 61 
Q 1907 269 1907 589 
Q 1907 1011 2172 1539 
Q 2438 2067 2864 2422 
Q 3290 2778 3629 2778 
Q 4070 2778 4166 2342 
L 4269 2688 
L 4762 2758 
z
M 4051 2182 
Q 4051 2374 3939 2502 
Q 3827 2630 3667 2630 
Q 3424 2630 3145 2339 
Q 2867 2048 2633 1517 
Q 2400 986 2400 685 
Q 2400 480 2509 358 
Q 2618 237 2771 237 
Q 3046 237 3385 585 
Q 3725 934 3888 1398 
Q 4051 1862 4051 2182 
z
" id="STKaiti-40" transform="scale(0.015625)"/>
      </defs>
      <use xlink:href="#STKaiti-77e9"/>
      <use x="99.999985" xlink:href="#STKaiti-9635"/>
      <use x="199.999969" xlink:href="#STKaiti-5927"/>
      <use x="299.999954" xlink:href="#STKaiti-5c0f"/>
      <use x="399.999939" xlink:href="#STKaiti-6e"/>
      <use x="450.999924" xlink:href="#STKaiti-3a"/>
      <use x="472.899918" xlink:href="#STKaiti-28"/>
      <use x="502.099915" xlink:href="#STKaiti-31"/>
      <use x="548.999908" xlink:href="#STKaiti-78"/>
      <use x="594.799896" xlink:href="#STKaiti-6e"/>
      <use x="645.799881" xlink:href="#STKaiti-29"/>
      <use x="674.999878" xlink:href="#STKaiti-40"/>
      <use x="766.69986" xlink:href="#STKaiti-28"/>
      <use x="795.899857" xlink:href="#STKaiti-6e"/>
      <use x="846.899841" xlink:href="#STKaiti-78"/>
      <use x="892.699829" xlink:href="#STKaiti-31"/>
      <use x="939.599823" xlink:href="#STKaiti-29"/>
     </g>
    </g>
   </g>
   <g id="matplotlib.axis_2">
    <g id="ytick_1">
     <g id="line2d_5">
      <defs>
       <path d="M 0 0 
L -3.5 0 
" id="m989dfc9bba" style="stroke:#000000;stroke-width:0.8;"/>
      </defs>
      <g>
       <use style="stroke:#000000;stroke-width:0.8;" x="81" xlink:href="#m989dfc9bba" y="375.41906"/>
      </g>
     </g>
     <g id="text_6">
      <!-- $\mathdefault{10^{-1}}$ -->
      <g transform="translate(38.8 382.01906)scale(0.2 -0.2)">
       <defs>
        <path d="M 454 2131 
L 3814 2131 
L 3814 1856 
L 454 1856 
L 454 2131 
z
" id="STKaiti-2212" transform="scale(0.015625)"/>
       </defs>
       <use transform="translate(0 0.665625)" xlink:href="#STKaiti-31"/>
       <use transform="translate(46.899994 0.665625)" xlink:href="#STKaiti-30"/>
       <use transform="translate(94.472097 27.55)scale(0.7)" xlink:href="#STKaiti-2212"/>
       <use transform="translate(141.162095 27.55)scale(0.7)" xlink:href="#STKaiti-31"/>
      </g>
     </g>
    </g>
    <g id="ytick_2">
     <g id="line2d_6">
      <g>
       <use style="stroke:#000000;stroke-width:0.8;" x="81" xlink:href="#m989dfc9bba" y="270.439373"/>
      </g>
     </g>
     <g id="text_7">
      <!-- $\mathdefault{10^{0}}$ -->
      <g transform="translate(48 277.039373)scale(0.2 -0.2)">
       <use transform="translate(0 0.665625)" xlink:href="#STKaiti-31"/>
       <use transform="translate(46.899994 0.665625)" xlink:href="#STKaiti-30"/>
       <use transform="translate(94.472097 27.55)scale(0.7)" xlink:href="#STKaiti-30"/>
      </g>
     </g>
    </g>
    <g id="ytick_3">
     <g id="line2d_7">
      <g>
       <use style="stroke:#000000;stroke-width:0.8;" x="81" xlink:href="#m989dfc9bba" y="165.459687"/>
      </g>
     </g>
     <g id="text_8">
      <!-- $\mathdefault{10^{1}}$ -->
      <g transform="translate(48 172.059687)scale(0.2 -0.2)">
       <use transform="translate(0 0.665625)" xlink:href="#STKaiti-31"/>
       <use transform="translate(46.899994 0.665625)" xlink:href="#STKaiti-30"/>
       <use transform="translate(94.472097 27.55)scale(0.7)" xlink:href="#STKaiti-31"/>
      </g>
     </g>
    </g>
    <g id="ytick_4">
     <g id="line2d_8">
      <g>
       <use style="stroke:#000000;stroke-width:0.8;" x="81" xlink:href="#m989dfc9bba" y="60.48"/>
      </g>
     </g>
     <g id="text_9">
      <!-- $\mathdefault{10^{2}}$ -->
      <g transform="translate(48 67.08)scale(0.2 -0.2)">
       <defs>
        <path d="M 2726 -19 
Q 2266 0 1421 0 
Q 595 0 141 -19 
Q 262 230 448 454 
Q 634 678 1043 1088 
Q 1638 1683 1913 2102 
Q 2189 2522 2189 2950 
Q 2189 3302 1968 3520 
Q 1747 3738 1421 3738 
Q 1101 3738 838 3517 
Q 576 3296 474 2893 
L 326 2918 
Q 429 3462 755 3763 
Q 1082 4064 1549 4064 
Q 2016 4064 2342 3753 
Q 2669 3443 2669 3008 
Q 2669 2573 2365 2192 
Q 2061 1811 1446 1242 
Q 1120 941 634 339 
L 2138 339 
Q 2381 339 2480 425 
Q 2579 512 2688 800 
L 2822 800 
L 2726 -19 
z
" id="STKaiti-32" transform="scale(0.015625)"/>
       </defs>
       <use transform="translate(0 0.665625)" xlink:href="#STKaiti-31"/>
       <use transform="translate(46.899994 0.665625)" xlink:href="#STKaiti-30"/>
       <use transform="translate(94.472097 27.55)scale(0.7)" xlink:href="#STKaiti-32"/>
      </g>
     </g>
    </g>
    <g id="ytick_5">
     <g id="line2d_9">
      <defs>
       <path d="M 0 0 
L -2 0 
" id="mc141c98b0c" style="stroke:#000000;stroke-width:0.6;"/>
      </defs>
      <g>
       <use style="stroke:#000000;stroke-width:0.6;" x="81" xlink:href="#mc141c98b0c" y="430.310706"/>
      </g>
     </g>
    </g>
    <g id="ytick_6">
     <g id="line2d_10">
      <g>
       <use style="stroke:#000000;stroke-width:0.6;" x="81" xlink:href="#mc141c98b0c" y="417.194677"/>
      </g>
     </g>
    </g>
    <g id="ytick_7">
     <g id="line2d_11">
      <g>
       <use style="stroke:#000000;stroke-width:0.6;" x="81" xlink:href="#mc141c98b0c" y="407.021094"/>
      </g>
     </g>
    </g>
    <g id="ytick_8">
     <g id="line2d_12">
      <g>
       <use style="stroke:#000000;stroke-width:0.6;" x="81" xlink:href="#mc141c98b0c" y="398.708672"/>
      </g>
     </g>
    </g>
    <g id="ytick_9">
     <g id="line2d_13">
      <g>
       <use style="stroke:#000000;stroke-width:0.6;" x="81" xlink:href="#mc141c98b0c" y="391.680619"/>
      </g>
     </g>
    </g>
    <g id="ytick_10">
     <g id="line2d_14">
      <g>
       <use style="stroke:#000000;stroke-width:0.6;" x="81" xlink:href="#mc141c98b0c" y="385.592642"/>
      </g>
     </g>
    </g>
    <g id="ytick_11">
     <g id="line2d_15">
      <g>
       <use style="stroke:#000000;stroke-width:0.6;" x="81" xlink:href="#mc141c98b0c" y="380.222667"/>
      </g>
     </g>
    </g>
    <g id="ytick_12">
     <g id="line2d_16">
      <g>
       <use style="stroke:#000000;stroke-width:0.6;" x="81" xlink:href="#mc141c98b0c" y="343.817025"/>
      </g>
     </g>
    </g>
    <g id="ytick_13">
     <g id="line2d_17">
      <g>
       <use style="stroke:#000000;stroke-width:0.6;" x="81" xlink:href="#mc141c98b0c" y="325.33102"/>
      </g>
     </g>
    </g>
    <g id="ytick_14">
     <g id="line2d_18">
      <g>
       <use style="stroke:#000000;stroke-width:0.6;" x="81" xlink:href="#mc141c98b0c" y="312.21499"/>
      </g>
     </g>
    </g>
    <g id="ytick_15">
     <g id="line2d_19">
      <g>
       <use style="stroke:#000000;stroke-width:0.6;" x="81" xlink:href="#mc141c98b0c" y="302.041408"/>
      </g>
     </g>
    </g>
    <g id="ytick_16">
     <g id="line2d_20">
      <g>
       <use style="stroke:#000000;stroke-width:0.6;" x="81" xlink:href="#mc141c98b0c" y="293.728985"/>
      </g>
     </g>
    </g>
    <g id="ytick_17">
     <g id="line2d_21">
      <g>
       <use style="stroke:#000000;stroke-width:0.6;" x="81" xlink:href="#mc141c98b0c" y="286.700932"/>
      </g>
     </g>
    </g>
    <g id="ytick_18">
     <g id="line2d_22">
      <g>
       <use style="stroke:#000000;stroke-width:0.6;" x="81" xlink:href="#mc141c98b0c" y="280.612956"/>
      </g>
     </g>
    </g>
    <g id="ytick_19">
     <g id="line2d_23">
      <g>
       <use style="stroke:#000000;stroke-width:0.6;" x="81" xlink:href="#mc141c98b0c" y="275.24298"/>
      </g>
     </g>
    </g>
    <g id="ytick_20">
     <g id="line2d_24">
      <g>
       <use style="stroke:#000000;stroke-width:0.6;" x="81" xlink:href="#mc141c98b0c" y="238.837339"/>
      </g>
     </g>
    </g>
    <g id="ytick_21">
     <g id="line2d_25">
      <g>
       <use style="stroke:#000000;stroke-width:0.6;" x="81" xlink:href="#mc141c98b0c" y="220.351333"/>
      </g>
     </g>
    </g>
    <g id="ytick_22">
     <g id="line2d_26">
      <g>
       <use style="stroke:#000000;stroke-width:0.6;" x="81" xlink:href="#mc141c98b0c" y="207.235304"/>
      </g>
     </g>
    </g>
    <g id="ytick_23">
     <g id="line2d_27">
      <g>
       <use style="stroke:#000000;stroke-width:0.6;" x="81" xlink:href="#mc141c98b0c" y="197.061721"/>
      </g>
     </g>
    </g>
    <g id="ytick_24">
     <g id="line2d_28">
      <g>
       <use style="stroke:#000000;stroke-width:0.6;" x="81" xlink:href="#mc141c98b0c" y="188.749299"/>
      </g>
     </g>
    </g>
    <g id="ytick_25">
     <g id="line2d_29">
      <g>
       <use style="stroke:#000000;stroke-width:0.6;" x="81" xlink:href="#mc141c98b0c" y="181.721246"/>
      </g>
     </g>
    </g>
    <g id="ytick_26">
     <g id="line2d_30">
      <g>
       <use style="stroke:#000000;stroke-width:0.6;" x="81" xlink:href="#mc141c98b0c" y="175.633269"/>
      </g>
     </g>
    </g>
    <g id="ytick_27">
     <g id="line2d_31">
      <g>
       <use style="stroke:#000000;stroke-width:0.6;" x="81" xlink:href="#mc141c98b0c" y="170.263294"/>
      </g>
     </g>
    </g>
    <g id="ytick_28">
     <g id="line2d_32">
      <g>
       <use style="stroke:#000000;stroke-width:0.6;" x="81" xlink:href="#mc141c98b0c" y="133.857652"/>
      </g>
     </g>
    </g>
    <g id="ytick_29">
     <g id="line2d_33">
      <g>
       <use style="stroke:#000000;stroke-width:0.6;" x="81" xlink:href="#mc141c98b0c" y="115.371647"/>
      </g>
     </g>
    </g>
    <g id="ytick_30">
     <g id="line2d_34">
      <g>
       <use style="stroke:#000000;stroke-width:0.6;" x="81" xlink:href="#mc141c98b0c" y="102.255617"/>
      </g>
     </g>
    </g>
    <g id="ytick_31">
     <g id="line2d_35">
      <g>
       <use style="stroke:#000000;stroke-width:0.6;" x="81" xlink:href="#mc141c98b0c" y="92.082035"/>
      </g>
     </g>
    </g>
    <g id="ytick_32">
     <g id="line2d_36">
      <g>
       <use style="stroke:#000000;stroke-width:0.6;" x="81" xlink:href="#mc141c98b0c" y="83.769612"/>
      </g>
     </g>
    </g>
    <g id="ytick_33">
     <g id="line2d_37">
      <g>
       <use style="stroke:#000000;stroke-width:0.6;" x="81" xlink:href="#mc141c98b0c" y="76.741559"/>
      </g>
     </g>
    </g>
    <g id="ytick_34">
     <g id="line2d_38">
      <g>
       <use style="stroke:#000000;stroke-width:0.6;" x="81" xlink:href="#mc141c98b0c" y="70.653583"/>
      </g>
     </g>
    </g>
    <g id="ytick_35">
     <g id="line2d_39">
      <g>
       <use style="stroke:#000000;stroke-width:0.6;" x="81" xlink:href="#mc141c98b0c" y="65.283607"/>
      </g>
     </g>
    </g>
    <g id="text_10">
     <!-- 运算时间(ms) -->
     <g transform="translate(29.659375 311.72)rotate(-90)scale(0.2 -0.2)">
      <defs>
       <path d="M 4813 3994 
Q 4813 3949 4723 3891 
Q 4634 3834 4166 3715 
Q 3699 3597 3500 3597 
Q 3302 3597 3171 3657 
Q 3040 3718 3040 3769 
Q 3040 3821 3168 3837 
Q 3296 3853 3510 3913 
Q 3725 3974 3859 4032 
Q 4243 4205 4425 4205 
Q 4608 4205 4710 4128 
Q 4813 4051 4813 3994 
z
M 1370 4109 
Q 1677 4109 1907 3965 
Q 2138 3821 2138 3539 
Q 2138 3456 2086 3395 
Q 2035 3334 1958 3334 
Q 1811 3334 1539 3664 
Q 1267 3994 1267 4051 
Q 1267 4109 1370 4109 
z
M 3475 2618 
Q 3232 2573 3040 2528 
Q 2848 2483 2726 2483 
Q 2605 2483 2461 2537 
Q 2317 2592 2317 2649 
Q 2317 2707 2426 2707 
Q 2662 2707 3465 2864 
Q 4269 3021 4691 3149 
Q 4896 3213 5078 3213 
Q 5261 3213 5433 3123 
Q 5606 3034 5606 2931 
Q 5606 2829 5402 2816 
Q 4346 2758 3622 2643 
Q 3789 2547 3869 2486 
Q 3949 2426 3949 2371 
Q 3949 2317 3866 2214 
L 3597 1875 
Q 3411 1638 3104 1299 
L 4570 1587 
Q 4314 2099 4314 2147 
Q 4314 2195 4352 2195 
Q 4422 2195 4697 1990 
Q 4973 1786 5097 1590 
Q 5222 1395 5222 1158 
Q 5222 845 5062 845 
Q 4947 845 4870 998 
L 4646 1440 
Q 3328 1101 3053 896 
Q 2938 819 2858 819 
Q 2778 819 2666 976 
Q 2554 1133 2554 1200 
Q 2554 1267 2682 1325 
Q 2950 1446 3088 1580 
Q 3226 1715 3357 2032 
Q 3488 2349 3488 2454 
Q 3488 2560 3475 2618 
z
M 1798 666 
Q 1888 659 2608 473 
Q 3328 288 3840 208 
Q 4352 128 4781 128 
Q 5210 128 5587 166 
L 6234 237 
Q 6342 237 6342 192 
Q 6342 96 5612 -185 
Q 4883 -467 4627 -467 
Q 4518 -467 4288 -378 
Q 2189 429 1702 429 
Q 1568 429 1417 381 
Q 1267 333 992 198 
Q 915 160 844 160 
Q 774 160 656 262 
Q 538 365 538 432 
Q 538 499 653 506 
Q 973 525 1395 646 
Q 1510 678 1600 678 
Q 1600 845 1561 973 
Q 1523 1101 1402 1318 
Q 1350 1421 1350 1600 
Q 1350 1779 1401 1961 
Q 1453 2144 1453 2179 
Q 1453 2214 1405 2214 
Q 1357 2214 1213 2176 
Q 1069 2138 953 2138 
Q 838 2138 758 2189 
Q 678 2240 678 2291 
Q 678 2342 749 2355 
Q 979 2400 1110 2454 
Q 1242 2509 1376 2611 
Q 1434 2656 1510 2656 
Q 1587 2656 1798 2569 
Q 2010 2483 2010 2387 
Q 2010 2342 1958 2298 
Q 1798 2150 1708 1961 
Q 1619 1773 1619 1635 
Q 1619 1498 1658 1434 
Q 1824 1165 1824 922 
Q 1824 819 1798 666 
z
" id="STKaiti-8fd0" transform="scale(0.015625)"/>
       <path d="M 4237 4307 
Q 4442 4307 4723 4384 
Q 5005 4461 5142 4461 
Q 5280 4461 5376 4416 
Q 5472 4371 5472 4323 
Q 5472 4275 5385 4240 
Q 5299 4205 4995 4169 
Q 4691 4134 4512 4134 
Q 4333 4134 4160 4173 
Q 4013 3974 3721 3728 
Q 3430 3482 3341 3482 
Q 3309 3482 3309 3510 
Q 3309 3539 3354 3590 
Q 3642 3904 3795 4160 
Q 3949 4416 3949 4563 
Q 3949 4608 3933 4640 
Q 3917 4672 3917 4698 
Q 3917 4768 3990 4768 
Q 4064 4768 4243 4704 
Q 4422 4640 4422 4570 
Q 4422 4544 4368 4489 
Q 4314 4435 4237 4307 
z
M 2445 4122 
Q 2586 4122 2995 4237 
Q 3117 4269 3222 4269 
Q 3328 4269 3427 4230 
Q 3526 4192 3526 4147 
Q 3526 4077 3251 4019 
Q 2976 3962 2781 3962 
Q 2586 3962 2374 4019 
Q 2035 3558 1801 3369 
Q 1568 3181 1485 3181 
Q 1466 3181 1466 3206 
Q 1466 3232 1523 3309 
Q 2195 4134 2195 4435 
Q 2195 4474 2182 4502 
Q 2170 4531 2170 4557 
Q 2170 4666 2291 4666 
Q 2349 4666 2515 4602 
Q 2682 4538 2682 4467 
Q 2682 4435 2637 4384 
Q 2592 4333 2445 4122 
z
M 4288 3885 
Q 4486 3885 4668 3805 
Q 4851 3725 4851 3587 
Q 4851 3450 4691 3450 
Q 4582 3450 4384 3600 
Q 4186 3750 4186 3840 
Q 4186 3885 4288 3885 
z
M 2509 3731 
Q 2899 3731 2899 3469 
Q 2899 3347 2784 3347 
Q 2669 3347 2512 3475 
Q 2355 3603 2355 3680 
Q 2355 3731 2509 3731 
z
M 2400 3142 
Q 2752 3174 3241 3248 
Q 3731 3322 3840 3354 
Q 3949 3386 4038 3386 
Q 4128 3386 4349 3280 
Q 4570 3174 4570 3098 
Q 4570 3066 4522 2995 
Q 4474 2925 4432 2777 
Q 4390 2630 4384 2483 
Q 4352 1824 4262 1664 
Q 4173 1504 4083 1504 
Q 4058 1504 3974 1558 
Q 3891 1613 3827 1613 
Q 3437 1613 2586 1478 
Q 2560 1395 2525 1395 
Q 2490 1395 2448 1446 
Q 2406 1498 2374 1798 
Q 2342 2547 2281 2739 
Q 2221 2931 2173 2988 
Q 2125 3046 2125 3100 
Q 2125 3155 2272 3155 
Q 2323 3155 2400 3142 
z
M 2624 1658 
L 3341 1760 
Q 3680 1805 3753 1792 
Q 3827 1779 3878 1779 
Q 3930 1779 3952 1852 
Q 3974 1926 3993 2220 
Q 4013 2515 4013 2761 
Q 4013 3008 4000 3075 
Q 3987 3142 3814 3142 
Q 3437 3142 2573 3008 
L 2592 2662 
Q 2963 2714 3152 2774 
Q 3341 2835 3440 2835 
Q 3539 2835 3616 2790 
Q 3693 2746 3693 2720 
Q 3693 2662 3264 2592 
Q 2835 2522 2598 2541 
L 2618 2157 
Q 3046 2208 3206 2262 
Q 3366 2317 3481 2317 
Q 3597 2317 3654 2269 
Q 3712 2221 3712 2189 
Q 3712 2157 3616 2128 
Q 3520 2099 3171 2057 
Q 2822 2016 2624 2022 
L 2624 1658 
z
M 4134 1126 
Q 4621 1178 4902 1232 
Q 5184 1286 5459 1286 
Q 5734 1286 5900 1184 
Q 6067 1082 6067 998 
Q 6067 896 5773 896 
Q 5638 896 5494 918 
Q 5350 941 5043 941 
Q 4736 941 4109 902 
Q 4109 736 4144 256 
Q 4179 -224 4179 -416 
Q 4179 -608 4128 -781 
Q 4077 -954 4003 -954 
Q 3930 -954 3846 -826 
Q 3763 -698 3763 -589 
Q 3763 -480 3801 -269 
Q 3840 -58 3840 300 
Q 3840 659 3834 890 
Q 3213 858 2752 800 
Q 2630 474 2518 285 
Q 2406 96 2185 -118 
Q 1965 -333 1683 -473 
Q 1402 -614 1293 -614 
Q 1242 -614 1242 -579 
Q 1242 -544 1344 -480 
Q 2150 51 2387 755 
Q 1875 691 1513 617 
Q 1152 544 1033 544 
Q 915 544 819 646 
Q 723 749 723 781 
Q 723 813 758 819 
Q 794 826 902 826 
Q 1222 826 2426 941 
Q 2432 1088 2393 1155 
Q 2355 1222 2355 1270 
Q 2355 1318 2422 1318 
Q 2490 1318 2650 1238 
Q 2810 1158 2810 1062 
Q 2810 1030 2797 986 
L 3821 1088 
Q 3802 1261 3760 1328 
Q 3718 1395 3718 1436 
Q 3718 1478 3788 1478 
Q 3859 1478 4012 1414 
Q 4166 1350 4166 1267 
Q 4166 1261 4134 1126 
z
" id="STKaiti-7b97" transform="scale(0.015625)"/>
       <path d="M 4851 2861 
Q 5158 2918 5395 2989 
Q 5574 3034 5734 3034 
Q 5894 3034 6051 2938 
Q 6208 2842 6208 2746 
Q 6208 2624 5926 2624 
Q 5850 2624 5766 2633 
Q 5683 2643 5504 2643 
Q 5325 2643 4851 2605 
Q 4858 1920 4890 1165 
L 4934 70 
Q 4934 -301 4768 -605 
Q 4602 -909 4525 -909 
Q 4448 -909 4365 -787 
Q 4109 -448 3910 -243 
Q 3712 -38 3712 -22 
Q 3712 -6 3744 -6 
Q 3776 -6 3997 -70 
Q 4218 -134 4346 -134 
Q 4474 -134 4502 -54 
Q 4531 26 4556 586 
Q 4582 1146 4582 1712 
Q 4582 2278 4576 2573 
Q 3853 2483 3645 2425 
Q 3437 2368 3312 2368 
Q 3187 2368 3027 2429 
Q 2867 2490 2867 2534 
Q 2867 2579 3171 2595 
Q 3475 2611 4570 2810 
Q 4563 3309 4534 3721 
Q 4506 4134 4419 4278 
Q 4333 4422 4333 4486 
Q 4333 4550 4409 4550 
Q 4486 4550 4748 4435 
Q 5011 4320 5011 4186 
Q 5011 4122 4960 3994 
Q 4845 3738 4851 2861 
z
M 1446 3507 
Q 1523 3501 1594 3501 
Q 1933 3501 2272 3706 
Q 2355 3750 2438 3750 
Q 2522 3750 2730 3635 
Q 2938 3520 2938 3449 
Q 2938 3379 2835 3283 
Q 2707 3162 2707 2010 
L 2726 845 
Q 2726 410 2640 192 
Q 2554 -26 2493 -26 
Q 2432 -26 2361 153 
Q 2291 333 2291 416 
Q 2253 506 2198 538 
Q 2144 570 2016 570 
Q 1888 570 1478 518 
Q 1414 115 1299 115 
Q 1235 115 1190 281 
Q 1146 448 1146 544 
Q 1146 640 1190 774 
Q 1254 960 1254 1894 
Q 1254 2829 1209 3088 
Q 1165 3347 1120 3414 
Q 1075 3482 1075 3536 
Q 1075 3590 1161 3590 
Q 1248 3590 1446 3507 
z
M 2349 646 
Q 2432 1024 2432 2278 
Q 2432 2822 2419 3081 
Q 2406 3341 2371 3398 
Q 2336 3456 2246 3456 
Q 2157 3456 1936 3405 
Q 1715 3354 1491 3354 
Q 1504 2854 1504 2131 
Q 1888 2266 1990 2266 
Q 2093 2266 2173 2230 
Q 2253 2195 2253 2131 
Q 2253 2067 2038 2019 
Q 1824 1971 1709 1971 
Q 1594 1971 1504 1997 
Q 1510 1286 1498 736 
Q 1869 781 2032 781 
Q 2195 781 2349 646 
z
M 3200 2003 
Q 3302 2003 3574 1862 
Q 3846 1722 3846 1421 
Q 3846 1299 3801 1228 
Q 3757 1158 3683 1158 
Q 3610 1158 3536 1251 
Q 3462 1344 3308 1635 
Q 3155 1926 3155 1964 
Q 3155 2003 3200 2003 
z
" id="STKaiti-65f6" transform="scale(0.015625)"/>
       <path d="M 1728 4429 
Q 1875 4429 2169 4291 
Q 2464 4154 2464 3891 
Q 2464 3693 2304 3693 
Q 2163 3693 1904 3993 
Q 1645 4294 1645 4361 
Q 1645 4429 1728 4429 
z
M 5498 3821 
Q 5498 3763 5408 3638 
Q 5318 3514 5299 3357 
Q 5280 3200 5280 2832 
Q 5280 2464 5334 1625 
Q 5389 787 5389 538 
Q 5389 -96 5248 -435 
Q 5107 -774 5005 -774 
Q 4941 -774 4841 -633 
Q 4742 -493 4563 -297 
Q 4384 -102 4275 -19 
Q 4166 64 4166 99 
Q 4166 134 4230 134 
Q 4269 134 4451 83 
Q 4634 32 4739 32 
Q 4845 32 4889 89 
Q 4934 147 4960 345 
Q 4986 544 4986 1123 
Q 4986 1702 4960 2553 
Q 4934 3405 4899 3584 
Q 4864 3763 4781 3840 
Q 4698 3917 4563 3917 
Q 4429 3917 4265 3878 
Q 4102 3840 3702 3766 
Q 3302 3693 3180 3693 
Q 3059 3693 2947 3773 
Q 2835 3853 2835 3901 
Q 2835 3949 3021 3949 
Q 3373 3949 3875 4029 
Q 4378 4109 4560 4169 
Q 4742 4230 4828 4230 
Q 4915 4230 5206 4073 
Q 5498 3917 5498 3821 
z
M 1754 3264 
Q 1754 3219 1728 3062 
Q 1702 2906 1705 2643 
Q 1709 2381 1709 2112 
Q 1709 1050 1597 381 
Q 1485 -288 1357 -288 
Q 1286 -288 1216 -99 
Q 1146 90 1146 224 
Q 1146 358 1190 486 
Q 1306 800 1350 1222 
Q 1395 1645 1395 2470 
Q 1395 3296 1293 3475 
Q 1248 3552 1248 3603 
Q 1248 3654 1305 3654 
Q 1363 3654 1558 3529 
Q 1754 3405 1754 3264 
z
M 2707 2829 
Q 3264 2893 3533 3053 
Q 3635 3110 3740 3110 
Q 3846 3110 4041 3011 
Q 4237 2912 4237 2829 
Q 4237 2797 4198 2746 
Q 4083 2592 4083 2016 
L 4109 1325 
Q 4109 1005 4022 816 
Q 3936 627 3856 627 
Q 3776 627 3674 890 
Q 3629 1011 3395 1011 
Q 3162 1011 2765 966 
Q 2733 730 2650 730 
Q 2502 730 2502 1242 
Q 2502 2042 2476 2317 
Q 2451 2592 2390 2704 
Q 2330 2816 2330 2867 
Q 2330 2918 2419 2918 
Q 2509 2918 2707 2829 
z
M 2784 1152 
Q 3174 1235 3315 1235 
Q 3456 1235 3533 1209 
Q 3610 1184 3651 1184 
Q 3693 1184 3715 1229 
Q 3738 1274 3757 1395 
Q 3776 1517 3776 1750 
Q 3776 1984 3753 2345 
Q 3731 2707 3664 2736 
Q 3597 2765 3485 2765 
Q 3373 2765 2771 2682 
Q 2784 2259 2784 2022 
Q 3232 2150 3318 2150 
Q 3405 2150 3488 2115 
Q 3571 2080 3571 2016 
Q 3571 1952 3392 1907 
Q 3213 1862 3046 1862 
Q 2880 1862 2784 1869 
Q 2797 1421 2784 1152 
z
" id="STKaiti-95f4" transform="scale(0.015625)"/>
       <path d="M 3578 83 
L 3763 122 
Q 3917 154 3981 202 
Q 4045 250 4045 390 
L 4045 1536 
Q 4045 1914 3894 2086 
Q 3744 2259 3424 2259 
Q 3002 2259 2688 1888 
L 2688 442 
Q 2688 307 2713 240 
Q 2739 173 2854 147 
L 3181 77 
L 3181 -26 
Q 2861 0 2502 0 
Q 2125 0 1773 -26 
L 1773 77 
L 1958 122 
Q 2138 166 2218 220 
Q 2298 275 2298 410 
L 2298 1549 
Q 2298 1869 2144 2061 
Q 1990 2253 1747 2253 
Q 1459 2253 1193 2083 
Q 928 1914 928 1741 
L 928 435 
Q 928 282 969 224 
Q 1011 166 1101 147 
L 1427 77 
L 1427 -26 
Q 1107 0 787 0 
Q 454 0 115 -26 
L 115 77 
L 301 115 
Q 442 147 490 204 
Q 538 262 538 397 
L 538 1779 
Q 538 1939 477 2000 
Q 416 2061 192 2093 
L 192 2195 
Q 518 2278 806 2669 
L 928 2669 
L 928 2054 
Q 1210 2310 1430 2432 
Q 1651 2554 1888 2554 
Q 2189 2554 2349 2464 
Q 2509 2374 2669 2086 
Q 2886 2310 3113 2432 
Q 3341 2554 3635 2554 
Q 4013 2554 4224 2326 
Q 4435 2099 4435 1677 
L 4435 384 
Q 4435 147 4538 128 
L 4826 77 
L 4826 -26 
Q 4506 0 4218 0 
Q 3834 0 3578 -19 
L 3578 83 
z
" id="STKaiti-6d" transform="scale(0.015625)"/>
       <path d="M 1792 1843 
Q 1734 2061 1536 2233 
Q 1338 2406 1184 2406 
Q 717 2406 717 1978 
Q 717 1805 870 1686 
Q 1024 1568 1338 1453 
Q 2061 1178 2061 672 
Q 2061 339 1805 118 
Q 1549 -102 1171 -102 
Q 710 -102 416 64 
L 352 787 
L 461 787 
Q 550 448 774 240 
Q 998 32 1254 32 
Q 1459 32 1600 163 
Q 1741 294 1741 493 
Q 1741 858 1139 1082 
Q 717 1242 534 1418 
Q 352 1594 352 1850 
Q 352 2176 595 2365 
Q 838 2554 1248 2554 
Q 1613 2554 1875 2400 
L 1914 1843 
L 1792 1843 
z
" id="STKaiti-73" transform="scale(0.015625)"/>
      </defs>
      <use xlink:href="#STKaiti-8fd0"/>
      <use x="99.999985" xlink:href="#STKaiti-7b97"/>
      <use x="199.999969" xlink:href="#STKaiti-65f6"/>
      <use x="299.999954" xlink:href="#STKaiti-95f4"/>
      <use x="399.999939" xlink:href="#STKaiti-28"/>
      <use x="429.199936" xlink:href="#STKaiti-6d"/>
      <use x="506.299927" xlink:href="#STKaiti-73"/>
      <use x="542.799911" xlink:href="#STKaiti-29"/>
     </g>
    </g>
   </g>
   <g id="line2d_40">
    <path clip-path="url(#p2ab41ffa6d)" d="M 103.827273 426.928712 
L 160.895455 429.527214 
L 217.963636 429.917277 
L 275.031818 428.712916 
L 332.1 412.313629 
L 389.168182 355.997444 
L 446.236364 267.573785 
L 503.304545 160.48219 
L 560.372727 57.062824 
" style="fill:none;stroke:#ff7f0e;stroke-linecap:square;stroke-width:1.5;"/>
   </g>
   <g id="line2d_41">
    <path clip-path="url(#p2ab41ffa6d)" d="M 103.827273 426.928712 
L 160.895455 429.527214 
L 217.963636 429.917277 
L 275.031818 428.712916 
L 332.1 412.313629 
L 389.168182 355.997444 
L 446.236364 267.573785 
L 503.304545 160.48219 
L 560.372727 57.062824 
" style="fill:none;stroke:#ff7f0e;stroke-linecap:square;stroke-width:1.5;"/>
    <defs>
     <path d="M -3 3 
L 3 3 
L 3 -3 
L -3 -3 
z
" id="m9718f26af3" style="stroke:#ff7f0e;stroke-linejoin:miter;"/>
    </defs>
    <g clip-path="url(#p2ab41ffa6d)">
     <use style="fill:#ff7f0e;stroke:#ff7f0e;stroke-linejoin:miter;" x="103.827273" xlink:href="#m9718f26af3" y="426.928712"/>
     <use style="fill:#ff7f0e;stroke:#ff7f0e;stroke-linejoin:miter;" x="160.895455" xlink:href="#m9718f26af3" y="429.527214"/>
     <use style="fill:#ff7f0e;stroke:#ff7f0e;stroke-linejoin:miter;" x="217.963636" xlink:href="#m9718f26af3" y="429.917277"/>
     <use style="fill:#ff7f0e;stroke:#ff7f0e;stroke-linejoin:miter;" x="275.031818" xlink:href="#m9718f26af3" y="428.712916"/>
     <use style="fill:#ff7f0e;stroke:#ff7f0e;stroke-linejoin:miter;" x="332.1" xlink:href="#m9718f26af3" y="412.313629"/>
     <use style="fill:#ff7f0e;stroke:#ff7f0e;stroke-linejoin:miter;" x="389.168182" xlink:href="#m9718f26af3" y="355.997444"/>
     <use style="fill:#ff7f0e;stroke:#ff7f0e;stroke-linejoin:miter;" x="446.236364" xlink:href="#m9718f26af3" y="267.573785"/>
     <use style="fill:#ff7f0e;stroke:#ff7f0e;stroke-linejoin:miter;" x="503.304545" xlink:href="#m9718f26af3" y="160.48219"/>
     <use style="fill:#ff7f0e;stroke:#ff7f0e;stroke-linejoin:miter;" x="560.372727" xlink:href="#m9718f26af3" y="57.062824"/>
    </g>
   </g>
   <g id="line2d_42">
    <path clip-path="url(#p2ab41ffa6d)" d="M 103.827273 395.659494 
L 160.895455 399.220648 
L 217.963636 390.612055 
L 275.031818 390.624782 
L 332.1 387.258319 
L 389.168182 382.433437 
L 446.236364 382.828639 
L 503.304545 380.532732 
L 560.372727 382.61993 
" style="fill:none;stroke:#1f77b4;stroke-linecap:square;stroke-width:1.5;"/>
   </g>
   <g id="line2d_43">
    <path clip-path="url(#p2ab41ffa6d)" d="M 103.827273 395.659494 
L 160.895455 399.220648 
L 217.963636 390.612055 
L 275.031818 390.624782 
L 332.1 387.258319 
L 389.168182 382.433437 
L 446.236364 382.828639 
L 503.304545 380.532732 
L 560.372727 382.61993 
" style="fill:none;stroke:#1f77b4;stroke-linecap:square;stroke-width:1.5;"/>
    <defs>
     <path d="M 0 -3 
L -3 3 
L 3 3 
z
" id="mdc09b686b7" style="stroke:#1f77b4;stroke-linejoin:miter;"/>
    </defs>
    <g clip-path="url(#p2ab41ffa6d)">
     <use style="fill:#1f77b4;stroke:#1f77b4;stroke-linejoin:miter;" x="103.827273" xlink:href="#mdc09b686b7" y="395.659494"/>
     <use style="fill:#1f77b4;stroke:#1f77b4;stroke-linejoin:miter;" x="160.895455" xlink:href="#mdc09b686b7" y="399.220648"/>
     <use style="fill:#1f77b4;stroke:#1f77b4;stroke-linejoin:miter;" x="217.963636" xlink:href="#mdc09b686b7" y="390.612055"/>
     <use style="fill:#1f77b4;stroke:#1f77b4;stroke-linejoin:miter;" x="275.031818" xlink:href="#mdc09b686b7" y="390.624782"/>
     <use style="fill:#1f77b4;stroke:#1f77b4;stroke-linejoin:miter;" x="332.1" xlink:href="#mdc09b686b7" y="387.258319"/>
     <use style="fill:#1f77b4;stroke:#1f77b4;stroke-linejoin:miter;" x="389.168182" xlink:href="#mdc09b686b7" y="382.433437"/>
     <use style="fill:#1f77b4;stroke:#1f77b4;stroke-linejoin:miter;" x="446.236364" xlink:href="#mdc09b686b7" y="382.828639"/>
     <use style="fill:#1f77b4;stroke:#1f77b4;stroke-linejoin:miter;" x="503.304545" xlink:href="#mdc09b686b7" y="380.532732"/>
     <use style="fill:#1f77b4;stroke:#1f77b4;stroke-linejoin:miter;" x="560.372727" xlink:href="#mdc09b686b7" y="382.61993"/>
    </g>
   </g>
   <g id="patch_3">
    <path d="M 81 448.56 
L 81 60.48 
" style="fill:none;stroke:#000000;stroke-linecap:square;stroke-linejoin:miter;stroke-width:0.8;"/>
   </g>
   <g id="patch_4">
    <path d="M 583.2 448.56 
L 583.2 60.48 
" style="fill:none;stroke:#000000;stroke-linecap:square;stroke-linejoin:miter;stroke-width:0.8;"/>
   </g>
   <g id="patch_5">
    <path d="M 81 448.56 
L 583.2 448.56 
" style="fill:none;stroke:#000000;stroke-linecap:square;stroke-linejoin:miter;stroke-width:0.8;"/>
   </g>
   <g id="patch_6">
    <path d="M 81 60.48 
L 583.2 60.48 
" style="fill:none;stroke:#000000;stroke-linecap:square;stroke-linejoin:miter;stroke-width:0.8;"/>
   </g>
   <g id="legend_1">
    <g id="patch_7">
     <path d="M 95 134.76125 
L 199.8375 134.76125 
Q 203.8375 134.76125 203.8375 130.76125 
L 203.8375 74.48 
Q 203.8375 70.48 199.8375 70.48 
L 95 70.48 
Q 91 70.48 91 74.48 
L 91 130.76125 
Q 91 134.76125 95 134.76125 
z
" style="fill:#ffffff;opacity:0.8;stroke:#cccccc;stroke-linejoin:miter;"/>
    </g>
    <g id="line2d_44">
     <path d="M 99 85.48 
L 139 85.48 
" style="fill:none;stroke:#ff7f0e;stroke-linecap:square;stroke-width:1.5;"/>
    </g>
    <g id="line2d_45">
     <g>
      <use style="fill:#ff7f0e;stroke:#ff7f0e;stroke-linejoin:miter;" x="119" xlink:href="#m9718f26af3" y="85.48"/>
     </g>
    </g>
    <g id="text_11">
     <!-- CPU -->
     <g transform="translate(155 92.48)scale(0.2 -0.2)">
      <defs>
       <path d="M 3846 883 
Q 3776 493 3648 58 
Q 3238 -102 2458 -102 
Q 1453 -102 864 451 
Q 275 1005 275 1914 
Q 275 2470 553 2976 
Q 832 3482 1309 3773 
Q 1786 4064 2336 4064 
Q 2899 4064 3174 4013 
Q 3450 3962 3706 3802 
Q 3744 3494 3738 3168 
L 3616 3168 
Q 3488 3539 3184 3734 
Q 2880 3930 2451 3930 
Q 1779 3930 1337 3376 
Q 896 2822 896 1946 
Q 896 998 1289 518 
Q 1683 38 2458 38 
Q 3347 38 3763 883 
L 3846 883 
z
" id="STKaiti-43" transform="scale(0.015625)"/>
       <path d="M 134 4000 
Q 755 4000 979 4013 
L 1888 4064 
Q 1990 4070 2086 4070 
Q 2803 4070 3116 3705 
Q 3430 3341 3430 2893 
Q 3430 2394 3068 2045 
Q 2707 1696 2182 1696 
Q 1779 1696 1568 1946 
L 1606 1984 
Q 1773 1926 1952 1926 
Q 2342 1926 2608 2179 
Q 2874 2432 2874 2867 
Q 2874 3290 2576 3587 
Q 2278 3885 1638 3885 
Q 1414 3885 1299 3834 
L 1299 390 
Q 1299 294 1340 252 
Q 1382 211 1523 179 
L 1990 77 
L 1990 -26 
Q 1453 0 1126 0 
Q 902 0 262 -19 
L 262 83 
L 621 134 
Q 717 154 749 205 
Q 781 256 781 378 
L 781 3430 
Q 781 3674 630 3757 
Q 480 3840 134 3878 
L 134 4000 
z
" id="STKaiti-50" transform="scale(0.015625)"/>
       <path d="M 1843 4019 
L 1843 3917 
L 1440 3866 
Q 1325 3853 1277 3779 
Q 1229 3706 1229 3546 
L 1229 1261 
Q 1229 646 1485 374 
Q 1741 102 2323 102 
Q 3104 102 3376 464 
Q 3648 826 3648 1766 
L 3648 3539 
Q 3648 3795 3386 3846 
L 3008 3917 
L 3008 4019 
Q 3162 4000 3661 4000 
Q 4160 4000 4320 4019 
L 4320 3917 
L 3949 3834 
Q 3808 3808 3808 3539 
L 3808 1600 
Q 3808 704 3475 301 
Q 3142 -102 2342 -102 
Q 1562 -102 1142 224 
Q 723 550 723 1165 
L 723 3565 
Q 723 3718 691 3785 
Q 659 3853 570 3866 
L 115 3917 
L 115 4019 
Q 538 4000 979 4000 
Q 1613 4000 1843 4019 
z
" id="STKaiti-55" transform="scale(0.015625)"/>
      </defs>
      <use xlink:href="#STKaiti-43"/>
      <use x="63.499985" xlink:href="#STKaiti-50"/>
      <use x="119.799973" xlink:href="#STKaiti-55"/>
     </g>
    </g>
    <g id="line2d_46">
     <path d="M 99 114.620625 
L 139 114.620625 
" style="fill:none;stroke:#1f77b4;stroke-linecap:square;stroke-width:1.5;"/>
    </g>
    <g id="line2d_47">
     <g>
      <use style="fill:#1f77b4;stroke:#1f77b4;stroke-linejoin:miter;" x="119" xlink:href="#mdc09b686b7" y="114.620625"/>
     </g>
    </g>
    <g id="text_12">
     <!-- GPU -->
     <g transform="translate(155 121.620625)scale(0.2 -0.2)">
      <defs>
       <path d="M 4845 1670 
L 4429 1626 
Q 4320 1613 4278 1574 
Q 4237 1536 4237 1446 
L 4237 736 
Q 4237 512 4224 429 
Q 4211 346 4163 278 
Q 4115 211 3862 112 
Q 3610 13 3277 -44 
Q 2944 -102 2586 -102 
Q 1536 -102 915 454 
Q 294 1011 294 1907 
Q 294 2861 982 3462 
Q 1670 4064 2752 4064 
Q 3603 4064 4173 3757 
L 4224 2989 
L 4134 2970 
Q 3738 3923 2854 3923 
Q 1952 3923 1440 3398 
Q 928 2874 928 1984 
Q 928 1210 1456 630 
Q 1984 51 2752 51 
Q 3712 51 3712 736 
L 3712 1446 
Q 3712 1542 3664 1580 
Q 3616 1619 3514 1626 
L 2899 1670 
L 2899 1786 
Q 3392 1760 3712 1760 
Q 4346 1760 4845 1786 
L 4845 1670 
z
" id="STKaiti-47" transform="scale(0.015625)"/>
      </defs>
      <use xlink:href="#STKaiti-47"/>
      <use x="77.099991" xlink:href="#STKaiti-50"/>
      <use x="133.399979" xlink:href="#STKaiti-55"/>
     </g>
    </g>
   </g>
  </g>
 </g>
 <defs>
  <clipPath id="p2ab41ffa6d">
   <rect height="388.08" width="502.2" x="81" y="60.48"/>
  </clipPath>
 </defs>
</svg>
